<?xml version="1.0" encoding="UTF-8"?>
<svg id="Logo_with_strapline" data-name="Logo with strapline" xmlns="http://www.w3.org/2000/svg" viewBox="0 0 190.69922 50.8877">
  <defs>
    <style>
      .cls-1 {
        fill: #8f9da7;
      }

      .cls-2 {
        fill: #01b9d8;
      }

      .cls-3 {
        fill: #fff;
      }

      .cls-4 {
        fill: #414242;
      }

      .cls-5 {
        fill: #2a3b8e;
      }

      .cls-6 {
        fill: #0e8692;
      }

      .cls-7 {
        fill: #2a4a6c;
      }

      .cls-8 {
        fill: #06538a;
      }

      .cls-9 {
        fill: #035389;
      }

      .cls-10 {
        fill: #214c72;
      }

      .cls-11 {
        fill: #234e7d;
      }

      .cls-12 {
        fill: #1b75ba;
      }

      .cls-13 {
        fill: #1c476c;
      }
    </style>
  </defs>
  <g>
    <path class="cls-2" d="M58.4667,44.41091v3.48711h-1.42445v-3.30477c0-1.08231-.53576-1.6068-1.44749-1.6068-1.01417,0-1.69797.61566-1.69797,1.83424v3.07732h-1.42445v-8.45651h1.42445v3.07732c.46714-.50096,1.18525-.77448,2.02835-.77448,1.45876,0,2.54156.83134,2.54156,2.66656Z"/>
    <path class="cls-2" d="M59.6593,44.85501c0-1.82345,1.36759-3.11066,3.23712-3.11066,1.89159,0,3.24791,1.2872,3.24791,3.11066s-1.35632,3.1234-3.24791,3.1234c-1.86953,0-3.23712-1.29995-3.23712-3.1234ZM64.70811,44.85501c0-1.16172-.77497-1.90286-1.81169-1.90286-1.02594,0-1.80091.74115-1.80091,1.90286,0,1.1627.77497,1.90384,1.80091,1.90384,1.03672,0,1.81169-.74115,1.81169-1.90384Z"/>
    <path class="cls-2" d="M76.66007,41.812l-2.2455,6.08602h-1.36759l-1.57248-4.19394-1.59552,4.19394h-1.36759l-2.23373-6.08602h1.34504l1.6068,4.49099,1.67542-4.49099h1.19652l1.64111,4.51354,1.65238-4.51354h1.26514Z"/>
    <path class="cls-2" d="M80.24277,39.95521c0-.47939.38773-.85487.91173-.85487.52449,0,.91173.35293.91173.82055,0,.50096-.37596.8882-.91173.8882-.524,0-.91173-.37547-.91173-.85389ZM80.43688,41.812h1.42445v6.08602h-1.42445v-6.08602Z"/>
    <path class="cls-2" d="M87.21601,47.56764c-.34214.27352-.85487.41077-1.36759.41077-1.33328,0-2.09697-.70683-2.09697-2.05188v-2.92929h-1.0029v-1.13917h1.0029v-1.39014h1.42445v1.39014h1.62983v1.13917h-1.62983v2.89498c0,.59311.29607.91173.8431.91173.29656,0,.58135-.07941.79801-.25097l.399,1.01466Z"/>
    <path class="cls-2" d="M96.28377,44.3315v3.56652h-1.34455v-.74017c-.34214.52351-1.0029.82055-1.91463.82055-1.39063,0-2.26804-.76369-2.26804-1.82345,0-1.01466.6838-1.81267,2.5298-1.81267h1.57297v-.09117c0-.83134-.50145-1.32151-1.51562-1.32151-.6838,0-1.39063.22744-1.84649.6039l-.55831-1.03721c.64948-.50194,1.59552-.75193,2.57587-.75193,1.75483,0,2.769.83134,2.769,2.58715ZM94.85932,45.99516v-.70683h-1.47004c-.96859,0-1.23083.36469-1.23083.80879,0,.5137.43283.84408,1.16221.84408.69507,0,1.29946-.31959,1.53866-.94604Z"/>
    <path class="cls-2" d="M97.93321,39.44151h1.42445v8.45651h-1.42445v-8.45651Z"/>
    <path class="cls-2" d="M101.05367,39.44151h1.42445v8.45651h-1.42445v-8.45651Z"/>
    <path class="cls-2" d="M117.32457,44.41091v3.48711h-1.42445v-3.30477c0-1.08231-.50096-1.6068-1.36759-1.6068-.93428,0-1.58425.61566-1.58425,1.82345v3.08811h-1.42445v-3.30477c0-1.08231-.50096-1.6068-1.36759-1.6068-.94604,0-1.58425.61566-1.58425,1.82345v3.08811h-1.42445v-6.08602h1.35681v.77546c.45586-.54704,1.16172-.8431,1.99404-.8431.88918,0,1.62934.33038,2.05188,1.01368.4892-.62644,1.30975-1.01368,2.27834-1.01368,1.47053,0,2.49598.83134,2.49598,2.66656Z"/>
    <path class="cls-2" d="M124.06645,44.3315v3.56652h-1.34504v-.74017c-.34214.52351-1.0029.82055-1.91463.82055-1.39014,0-2.26853-.76369-2.26853-1.82345,0-1.01466.68429-1.81267,2.53029-1.81267h1.57346v-.09117c0-.83134-.50194-1.32151-1.5166-1.32151-.68331,0-1.39014.22744-1.846.6039l-.5588-1.03721c.64997-.50194,1.59601-.75193,2.57636-.75193,1.75483,0,2.76949.83134,2.76949,2.58715ZM122.642,45.99516v-.70683h-1.47053c-.96859,0-1.23132.36469-1.23132.80879,0,.5137.43332.84408,1.1627.84408.69507,0,1.29897-.31959,1.53915-.94604Z"/>
    <path class="cls-2" d="M128.20059,45.28833l-1.06074,1.0029v1.6068h-1.42445v-8.45651h1.42445v5.10567l2.95184-2.73518h1.70973l-2.54107,2.55284,2.78028,3.53319h-1.73228l-2.10776-2.6097Z"/>
    <path class="cls-2" d="M138.23743,45.31087h-4.77529c.17058.88918.91173,1.45876,1.97149,1.45876.68429,0,1.21956-.21666,1.65287-.66076l.76271.87741c-.54704.64997-1.40092.99212-2.4499.99212-2.04011,0-3.36163-1.31073-3.36163-3.1234,0-1.81169,1.33328-3.11066,3.14497-3.11066,1.77836,0,3.07732,1.24211,3.07732,3.14497,0,.11372-.01176.28528-.02255.42155ZM133.45037,44.36484h3.45378c-.1147-.87741-.78624-1.48131-1.7215-1.48131-.92251,0-1.59503.59311-1.73228,1.48131Z"/>
    <path class="cls-2" d="M138.758,47.29413l.54704-1.08231c.53625.35293,1.35583.6039,2.11952.6039.90094,0,1.27642-.25097,1.27642-.67252,0-1.1627-3.76063-.06862-3.76063-2.49598,0-1.15093,1.03721-1.90286,2.67832-1.90286.80879,0,1.73228.19313,2.27932.52351l-.54704,1.08329c-.58135-.34214-1.1627-.45586-1.74405-.45586-.86565,0-1.27642.2843-1.27642.68331,0,1.23132,3.76161.13725,3.76161,2.51852,0,1.14015-1.04898,1.88129-2.75871,1.88129-1.01368,0-2.02835-.29705-2.57538-.68429Z"/>
    <path class="cls-2" d="M147.42627,47.29413l.54704-1.08231c.53625.35293,1.35583.6039,2.11952.6039.90094,0,1.27642-.25097,1.27642-.67252,0-1.1627-3.76063-.06862-3.76063-2.49598,0-1.15093,1.03721-1.90286,2.67832-1.90286.80879,0,1.73228.19313,2.27932.52351l-.54704,1.08329c-.58135-.34214-1.1627-.45586-1.74405-.45586-.86565,0-1.27642.2843-1.27642.68331,0,1.23132,3.76161.13725,3.76161,2.51852,0,1.14015-1.04898,1.88129-2.75871,1.88129-1.01368,0-2.02835-.29705-2.57538-.68429Z"/>
    <path class="cls-2" d="M159.51596,45.31087h-4.77529c.17058.88918.91173,1.45876,1.97149,1.45876.68331,0,1.21956-.21666,1.65287-.66076l.76369.87741c-.54704.64997-1.4019.99212-2.45088.99212-2.04011,0-3.36163-1.31073-3.36163-3.1234,0-1.81169,1.33328-3.11066,3.14497-3.11066,1.77836,0,3.07732,1.24211,3.07732,3.14497,0,.11372-.01176.28528-.02255.42155ZM154.72891,44.36484h3.45378c-.1147-.87741-.78722-1.48131-1.7215-1.48131-.92251,0-1.59503.59311-1.73228,1.48131Z"/>
    <path class="cls-2" d="M166.72645,44.41091v3.48711h-1.42445v-3.30477c0-1.08231-.53625-1.6068-1.44798-1.6068-1.01368,0-1.69797.61566-1.69797,1.83424v3.07732h-1.42445v-6.08602h1.35681v.78722c.46665-.5588,1.20779-.85487,2.09697-.85487,1.45876,0,2.54107.83134,2.54107,2.66656Z"/>
    <path class="cls-2" d="M167.66857,47.29413l.54704-1.08231c.53625.35293,1.35583.6039,2.11952.6039.90094,0,1.27642-.25097,1.27642-.67252,0-1.1627-3.76063-.06862-3.76063-2.49598,0-1.15093,1.03721-1.90286,2.67832-1.90286.80879,0,1.73228.19313,2.27932.52351l-.54704,1.08329c-.58135-.34214-1.1627-.45586-1.74405-.45586-.86565,0-1.27642.2843-1.27642.68331,0,1.23132,3.76161.13725,3.76161,2.51852,0,1.14015-1.04898,1.88129-2.75871,1.88129-1.01368,0-2.02835-.29705-2.57538-.68429Z"/>
    <path class="cls-2" d="M179.75729,45.31087h-4.77529c.17058.88918.91173,1.45876,1.97149,1.45876.68429,0,1.21956-.21666,1.65287-.66076l.76271.87741c-.54704.64997-1.40092.99212-2.4499.99212-2.04011,0-3.36163-1.31073-3.36163-3.1234,0-1.81169,1.33328-3.11066,3.14497-3.11066,1.77836,0,3.07732,1.24211,3.07732,3.14497,0,.11372-.01176.28528-.02255.42155ZM174.97023,44.36484h3.45378c-.1147-.87741-.78624-1.48131-1.7215-1.48131-.92251,0-1.59503.59311-1.73228,1.48131Z"/>
    <path class="cls-2" d="M180.49451,47.03237c0-.57056.42155-.94604.93428-.94604s.93428.37547.93428.94604c0,.54704-.42155.94604-.93428.94604s-.93428-.399-.93428-.94604Z"/>
    <path class="cls-2" d="M182.67873,40.41794h2.99399v.5686h-1.13819v2.66656h-.71762v-2.66656h-1.13819v-.5686ZM189.3216,43.6531l-.00784-2.04305-1.09211,1.68424h-.32744l-1.09897-1.64503v2.00384h-.6784v-3.23516h.57743l1.37151,2.07344,1.34896-2.07344h.57743l.00784,3.23516h-.6784Z"/>
  </g>
  <g>
    <path class="cls-2" d="M53.37021,26.46343c1.01044.98903,2.61009,1.47341,3.83127,1.47341,1.55791,0,2.35778-.58904,2.35778-1.36804,0-.8005-.58985-1.17889-2.50544-1.17889-.61054,0-1.68415,0-1.89409.02079v-3.22064c.27373.02079,1.36804.02079,1.89409.02079,1.45262,0,2.27391-.3576,2.27391-1.0943,0-.88437-1.01044-1.28364-2.35777-1.28364-1.28426,0-2.50544.46298-3.49438,1.34663l-1.74723-2.2732c1.17889-1.32655,3.03141-2.27319,5.61999-2.27319,3.57896,0,5.57851,1.53577,5.57851,3.85198,0,1.64186-1.41042,2.88383-3.07307,3.15765,1.49429.14758,3.30451,1.30496,3.30451,3.32592,0,2.46243-2.31549,4.168-5.80995,4.168-2.69387,0-4.71555-.94807-5.80986-2.21083l1.83173-2.46243Z"/>
    <path class="cls-2" d="M71.36829,16.63253c1.66265,0,3.22064.52677,4.27275,1.34734l-1.57878,2.77846c-.779-.63142-1.53658-.92594-2.69397-.92594-1.70557,0-3.28435,1.24196-3.28435,3.19985v.16845c.69441-.92594,2.02097-1.59957,3.45208-1.59957,2.52624,0,4.86322,1.62035,4.86322,4.60946,0,2.88383-2.33698,4.92558-5.59992,4.92558-4.44111,0-6.3782-3.22064-6.3782-7.24107,0-4.48411,2.69531-7.26257,6.94717-7.26257M70.44172,24.6741c-.88438,0-1.74723.3154-2.35779.94736.10529,1.13668.77899,2.31485,2.48394,2.31485,1.34725,0,2.16854-.82057,2.16854-1.59948,0-1.17826-1.2004-1.66274-2.2947-1.66274"/>
    <path class="cls-2" d="M83.42959,16.63275c4.10501,0,6.0206,3.53658,6.0206,7.2417,0,3.70449-1.9156,7.26194-6.0206,7.26194-4.1043,0-6.02061-3.55745-6.02061-7.26194,0-3.70512,1.91632-7.2417,6.02061-7.2417M83.42959,19.83251c-1.68415,0-2.35779,1.55728-2.35779,4.04193,0,2.48402.67363,4.06209,2.35779,4.06209s2.35777-1.57806,2.35777-4.06209c0-2.48466-.67363-4.04193-2.35777-4.04193"/>
    <path class="cls-4" d="M92.2662,15.69327c0-1.21016.96331-2.17347,2.17338-2.17347s2.17418.96331,2.17418,2.17347c0,1.21069-.96411,2.19829-2.17418,2.19829s-2.17338-.98759-2.17338-2.19829M92.53859,18.95405h3.8035v11.92965h-3.8035v-11.92965Z"/>
    <path class="cls-4" d="M107.18378,23.99264c0-1.45683-.76592-1.97589-1.9509-1.97589-1.13669,0-1.87689.61744-2.32184,1.16079v7.70619h-3.8035v-11.92965h3.8035v1.45683c.716-.83929,2.12419-1.75341,4.12445-1.75341,2.71672,0,3.95241,1.58084,3.95241,3.77922v8.44702h-3.80412v-6.89108Z"/>
    <path class="cls-4" d="M114.31997,26.73442c.88911.79011,2.79091,1.58094,4.19918,1.58094,1.13597,0,1.60512-.37086,1.60512-.91421,0-.56825-.9134-.74083-2.05009-.9384-2.02508-.32158-4.89019-.79011-4.89019-3.87769,0-2.09999,1.80261-3.9276,5.11276-3.9276,2.00009,0,3.70503.64181,4.98866,1.58093l-1.45684,2.51924c-.71592-.69163-2.07508-1.30917-3.50763-1.30917-.88921,0-1.50602.37077-1.50602.84002,0,.51906.64181.61744,1.90179.84002,2.02437.37006,5.03857.86412,5.03857,4.09936,0,2.27257-2.0009,3.95251-5.43434,3.95251-2.12428,0-4.32193-.71655-5.58191-1.82751l1.58094-2.61843Z"/>
    <path class="cls-4" d="M125.43385,15.69327c0-1.21016.96277-2.17347,2.17347-2.17347,1.21006,0,2.17346.96331,2.17346,2.17347,0,1.21069-.9634,2.19829-2.17346,2.19829-1.2107,0-2.17347-.98759-2.17347-2.19829M125.7049,18.95405h3.80422v11.92965h-3.80422v-11.92965Z"/>
    <path class="cls-4" d="M133.60746,31.23038c.91429.9875,2.24838,1.38255,3.63102,1.38255,1.25998,0,3.03839-.51906,3.03839-2.74163v-.91429c-.9876,1.16088-2.17347,1.72922-3.53184,1.72922-2.91501,0-5.26104-2.00018-5.26104-6.02678,0-3.9276,2.27185-6.00196,5.26104-6.00196,1.33346,0,2.56843.51843,3.53184,1.70431v-1.40764h3.77858v10.86787c0,4.86591-3.85277,5.90278-6.81698,5.90278-2.05009,0-3.75431-.51835-5.28525-1.7777l1.65423-2.71672ZM140.27688,23.07851c-.46987-.64173-1.48246-1.06178-2.27257-1.06178-1.50674,0-2.61834.91349-2.61834,2.64271,0,1.75413,1.1116,2.66753,2.61834,2.66753.79011,0,1.8027-.41996,2.27257-1.06178v-3.18668Z"/>
    <path class="cls-4" d="M154.9467,23.94338c0-1.45746-.76592-1.9267-1.97599-1.9267-1.11169,0-1.85259.61682-2.29684,1.16088v7.70619h-3.80341V14.40896h3.80341v6.00197c.716-.83939,2.12364-1.7535,4.12445-1.7535,2.7168,0,3.95249,1.53174,3.95249,3.7294v8.49692h-3.80411v-6.94036Z"/>
    <path class="cls-4" d="M162.30506,27.67278v-5.40934h-1.9759v-3.30935h1.9759v-3.26078h3.77858v3.26078h2.42078v3.30935h-2.42078v4.34756c0,.69101.39568,1.21016,1.0624,1.21016.42005,0,.8394-.14838.96339-.29658l.74092,2.86501c-.46925.44496-1.40764.79074-2.81591.79074-2.42086,0-3.72938-1.20998-3.72938-3.50755"/>
    <path class="cls-4" d="M170.97323,26.73442c.8891.79011,2.79082,1.58094,4.19918,1.58094,1.13597,0,1.60511-.37086,1.60511-.91421,0-.56825-.91347-.74083-2.05007-.9384-2.02509-.32158-4.8902-.79011-4.8902-3.87769,0-2.09999,1.80262-3.9276,5.11267-3.9276,2.00018,0,3.70512.64181,4.98866,1.58093l-1.45675,2.51924c-.71592-.69163-2.07508-1.30917-3.50763-1.30917-.88921,0-1.50601.37077-1.50601.84002,0,.51906.6418.61744,1.90169.84002,2.02446.37006,5.03858.86412,5.03858,4.09936,0,2.27257-2.00081,3.95251-5.43426,3.95251-2.12428,0-4.32192-.71655-5.5819-1.82751l1.58094-2.61843Z"/>
  </g>
  <path class="cls-3" d="M26.47069.12467c-2.15608-.54477-4.34335.74647-4.92002,2.88661-5.33864-.17813-10.68831,1.78326-14.62003,5.70458-.97513.97442-1.82555,2.0258-2.55535,3.13534-.71726-.18359-1.49563.12759-1.86775.80955C-1.87057,20.69747-.40962,30.83831,6.0615,37.32323c.4955.49899,1.01393.96814,1.54966,1.40836-.3188,1.68756.46091,3.4597,2.0508,4.32534,3.45557,1.88235,7.26114,2.79656,11.04663,2.79656,6.03593,0,12.02391-2.32453,16.46994-6.76009,4.39191-4.38233,6.81555-10.21306,6.82245-16.41932.00699-6.20572-2.40356-12.04192-6.78714-16.43383C34.24542,3.26359,30.53063,1.14837,26.47069.12467M7.66528,9.45049c3.6975-3.68988,8.72352-5.55073,13.74614-5.40934-.01317,1.83101,1.21357,3.50477,3.06886,3.97195,2.63294.66457,5.04475,2.03969,6.97423,3.97402,2.84781,2.85399,4.41414,6.64638,4.40921,10.67863-.00341,4.03082-1.57879,7.81909-4.43278,10.66689-4.70104,4.69127-12.0516,5.75171-17.87749,2.57811-1.3098-.71242-2.83598-.62864-4.03145.08458-.38126-.32292-.75274-.65911-1.11097-1.01671-5.43712-5.45163-6.66663-13.9749-2.98642-20.72943.33269-.60983.23977-1.33408-.17114-1.84212.6868-1.04511,1.4907-2.03691,2.41181-2.95659"/>
  <path class="cls-3" d="M11.30749,22.2777c-.08593,2.57613.8608,5.15989,2.75498,7.0581.47265.47336.98481.88508,1.52475,1.23847-.08808.34452.04991.71807.37839.89611,1.49429.81305,3.14089,1.2081,4.77863,1.2081,2.6101,0,5.20075-1.00426,7.12324-2.92263.24398-.24398.47408-.49765.68751-.75821.11783.02213.23574.04364.35491.04364.6937,0,1.36804-.37149,1.7243-1.02576,2.35706-4.32606,1.57054-9.78737-1.91282-13.27833-4.36494-4.37731-11.47851-4.38286-15.85447-.01729-1.43667,1.43255-2.45688,3.22619-2.95103,5.18551-.262,1.0409.36109,2.09301,1.3916,2.37229M13.72288,20.86521c.32086-1.27037.98347-2.43403,1.91837-3.36481,2.84154-2.83733,7.46427-2.83249,10.30159.00977,2.26289,2.26907,2.77577,5.81748,1.24412,8.62792-.34452.63062-.29945,1.3632.0422,1.93844-.15662.18708-.31808.37005-.49272.54477-2.63089,2.62389-6.74557,3.21571-10.00295,1.44017-.29595-.15949-.64594-.11576-.8892.08378-.50589-.33054-.98481-.7186-1.42771-1.16285-1.78325-1.78683-2.67998-4.2145-2.61144-6.63957.88365.0069,1.69249-.58151,1.91775-1.47762"/>
  <path class="cls-2" d="M20.70862,45.85348c-3.78549.00144-7.58899-.91412-11.04672-2.79718-1.97168-1.07352-2.70149-3.54491-1.62519-5.51812,1.07361-1.97177,3.54643-2.70292,5.51812-1.62519,5.8259,3.17351,13.17646,2.10895,17.87472-2.58026,2.85542-2.84781,4.42936-6.63607,4.4342-10.66904.00349-4.03073-1.56149-7.82383-4.40921-10.67863-1.92948-1.93432-4.34129-3.30585-6.97361-3.9698-2.17893-.54961-3.49787-2.75973-2.9504-4.94018.55177-2.17688,2.76045-3.49509,4.94019-2.95031,4.05994,1.0236,7.77402,3.13883,10.74449,6.11558,4.38224,4.39191,6.79064,10.22812,6.78365,16.43383-.00618,6.20626-2.42847,12.037-6.82244,16.41789-4.44388,4.43698-10.43196,6.76143-16.46779,6.76143"/>
  <path class="cls-1" d="M20.80129,43.4401h-.02357c-5.56247-.0069-10.78822-2.17893-14.71644-6.11558C-.40984,30.83951-1.8708,20.69732,2.50938,12.65925c.43726-.80677,1.44922-1.1013,2.25241-.66188.80534.43797,1.10273,1.44706.6626,2.25169-3.67949,6.75462-2.45069,15.27788,2.98705,20.72943,3.30245,3.30935,7.69508,5.13489,12.36905,5.13973h.02079c4.66779,0,9.05621-1.81506,12.35938-5.11124,2.24408-2.2387,3.83809-5.03579,4.60741-8.08879.2232-.88911,1.13104-1.4269,2.01469-1.20523.89136.22391,1.42906,1.12692,1.20595,2.01612-.91618,3.6372-2.81242,6.96456-5.48076,9.62734-3.93235,3.92339-9.15326,6.08368-14.70667,6.08368"/>
  <path class="cls-6" d="M39.78276,25.71295c-.88365-.22167-1.79149.31612-2.01469,1.20523-.76932,3.05299-2.36333,5.85009-4.60741,8.08879-3.30316,3.29618-7.69158,5.11124-12.35938,5.11124h-.02079c-4.17009-.00432-8.11549-1.45903-11.26324-4.12267-.60291.36075-1.1206.88156-1.48055,1.54265-.20915.38345-.34926.78577-.42615,1.19293,3.70496,3.04412,8.30748,4.70295,13.16716,4.70898h.02357c5.55341,0,10.77432-2.1603,14.70667-6.08368,2.66834-2.66278,4.56458-5.99014,5.48076-9.62734.22311-.88921-.3146-1.79221-1.20596-2.01613Z"/>
  <path class="cls-1" d="M16.25046,40.72251c-3.25397-.82272-6.23413-2.51861-8.6161-4.90694-3.51731-3.52493-5.45091-8.20993-5.44608-13.18819.00511-3.69122,1.07496-7.21591,3.06302-10.22528-.13175-.16069-.29576-.29936-.48952-.40473-.12505-.06842-.25518-.119-.38739-.15267-2.09296,3.17458-3.21937,6.8907-3.22288,10.78053-.00699,5.25765,2.03548,10.20186,5.74678,13.92293,2.51655,2.5213,5.663,4.3136,9.10128,5.17852.04158.01174.08315.01729.12544.01729.23216,0,.44353-.15796.5024-.39362.07078-.27723-.09766-.5593-.37695-.62784Z"/>
  <path class="cls-2" d="M28.90822,29.04136c-.31737,0-.63904-.07759-.9384-.23843-.95085-.51978-1.30227-1.71193-.78455-2.66475,1.53093-2.81045,1.0202-6.35885-1.24269-8.62792-2.8367-2.84369-7.45727-2.84781-10.30159-.00977-.93428.92944-1.59688,2.09238-1.9164,3.36481-.2654,1.05076-1.3313,1.68415-2.38547,1.42359-1.05067-.26477-1.68756-1.33273-1.4235-2.38483.49621-1.96138,1.51642-3.75359,2.95381-5.18552,4.37525-4.36557,11.48809-4.35374,15.85376.01873,3.48326,3.49231,4.26781,8.95362,1.91147,13.2804-.35697.65427-1.03059,1.02369-1.72644,1.02369"/>
  <path class="cls-9" d="M20.78614,32.1208c-2.43546,0-4.87155-.928-6.72344-2.78536-2.95237-2.96008-3.6191-7.58558-1.6217-11.24841.06308-.12266.21755-.16774.33887-.10116.12266.0672.1663.21836.10116.33959-1.89274,3.47081-1.26061,7.85367,1.53443,10.65722,3.50486,3.51095,9.21293,3.5166,12.72469.01514,1.15111-1.14977,1.97168-2.5885,2.37023-4.16253.03459-.13225.16075-.22096.30348-.17947.13243.03333.21558.16988.18028.30429-.42077,1.65924-1.28498,3.17844-2.50132,4.39191-1.85045,1.84561-4.27758,2.76878-6.70668,2.76878"/>
  <path class="cls-9" d="M5.25131,12.40209c.6943-1.05098,1.49972-2.0396,2.41209-2.94983,3.69658-3.69173,8.72254-5.56168,13.74457-5.42006.00308-.31616.04216-.6369.12256-.95713.00653-.02577.01442-.05081.02141-.07633-5.33858-.18052-10.69092,1.79403-14.62175,5.71682-.96724.96528-1.82065,2.01408-2.55579,3.12914.13222.03367.26234.08426.38739.15267.19376.10537.35777.24404.48952.40473Z"/>
  <path class="cls-1" d="M9.51725,35.99553c-.38036-.32186-.74979-.66028-1.10581-1.01705-5.43774-5.45155-6.66654-13.97481-2.98705-20.72943.33423-.61104.2428-1.33976-.17308-1.84696-.13175-.16069-.29576-.29936-.48952-.40473-.12505-.06842-.25518-.119-.38739-.15267-.71699-.18257-1.49583.1334-1.86501.81455C-1.87079,20.69732-.40984,30.83951,6.06128,37.32452c.49631.49738,1.01348.96637,1.54928,1.4066.07689-.40716.21699-.80948.42615-1.19293.35995-.66109.87764-1.18189,1.48055-1.54265Z"/>
  <path class="cls-8" d="M21.55194,2.99873c-5.33858-.18052-10.69092,1.79403-14.62175,5.71682-.96724.96528-1.82065,2.01408-2.55579,3.12914.13222.03367.26234.08426.38739.15267.19376.10537.35777.24404.48952.40473.6943-1.05098,1.49972-2.0396,2.41209-2.94983,3.69658-3.69173,8.72254-5.56168,13.74457-5.42006.00308-.31616.04216-.6369.12256-.95713.00653-.02577.01442-.05081.02141-.07633Z"/>
  <path class="cls-11" d="M30.44919,6.06325c.13861-.25231.04435-.56762-.20591-.70418-2.72554-1.48481-5.70629-2.25941-8.69134-2.36034-.00699.02552-.01488.05057-.02141.07633-.0804.32023-.11949.64097-.12256.95713,2.8626.08072,5.72393.81459,8.33704,2.23831.25088.13584.5669.04569.70418-.20725Z"/>
  <path class="cls-13" d="M8.61494,36.72997c-.33681-.29243-.66412-.59711-.98057-.91441-3.51731-3.52493-5.45091-8.20993-5.44608-13.18819.00511-3.69122,1.07496-7.21591,3.06302-10.22528-.13175-.16069-.29576-.29936-.48952-.40473-.12505-.06842-.25518-.119-.38739-.15267-2.09296,3.17458-3.21937,6.8907-3.22288,10.78053-.00699,5.25765,2.03548,10.20186,5.74678,13.92293.35921.35989.73167.70438,1.11556,1.03398.00774-.01462.01491-.02939.02285-.04395.16267-.29877.35782-.56857.57823-.80821Z"/>
  <path class="cls-7" d="M16.12502,41.74397c.23216,0,.44353-.15796.5024-.39362.07078-.27723-.09766-.5593-.37695-.62784-2.82167-.71342-5.43715-2.08381-7.63553-3.99254-.22041.23964-.41556.50944-.57823.80821-.00794.01456-.01511.02933-.02285.04395,2.30559,1.97954,5.03821,3.40308,7.98572,4.14455.04158.01174.08315.01729.12544.01729Z"/>
  <g>
    <path class="cls-12" d="M27.58094,28.5241c-.1411.16266-.2878.32092-.44079.47373-3.51176,3.50145-9.21983,3.49581-12.72469-.01514-1.78037-1.78579-2.68285-4.21236-2.61453-6.63584-.15251-.00127-.30725-.01974-.46181-.05794-.01234-.00311-.02434-.00688-.03656-.0102-.08654,2.57509.86673,5.1584,2.76014,7.05675,1.85188,1.85735,4.28797,2.78536,6.72344,2.78536,2.4291,0,4.85623-.92316,6.70668-2.76878.17362-.17322.3392-.35333.49821-.53852-.00704-.00367-.01421-.00681-.02122-.01057-.14371-.07856-.27348-.1727-.38887-.27883Z"/>
    <path class="cls-5" d="M29.81386,24.65582c-.14274-.04149-.26889.04722-.30348.17947-.34558,1.36484-1.0089,2.6276-1.92944,3.68881.1154.10613.24516.20027.38887.27883.00701.00377.01418.0069.02122.01057.95494-1.11219,1.6424-2.431,2.00311-3.85339.0353-.1344-.04785-.27095-.18028-.30429Z"/>
    <path class="cls-5" d="M11.80093,22.34684c.03894-1.38119.39299-2.76138,1.0801-4.02137.06514-.12123.0215-.27239-.10116-.33959-.12132-.06658-.27579-.0215-.33887.10116-.71643,1.31379-1.09004,2.75143-1.13844,4.19165.01222.00333.02422.0071.03656.0102.15456.0382.3093.05667.46181.05794Z"/>
  </g>
  <path class="cls-12" d="M27.22641,28.08797c-.15455.18302-.31756.36126-.49016.53352-2.63088,2.62192-6.74691,3.21786-10.00294,1.44026-.38117-.20447-.87397-.06935-1.08741.32086-.21209.38878-.0672.87604.32095,1.08741,1.49482.81358,3.14018,1.21078,4.7772,1.21078,2.61215,0,5.20066-1.00703,7.1253-2.92683.2404-.23997.46588-.4893.67685-.74664-.19647-.03706-.39072-.10465-.57638-.2044-.31863-.17418-.56955-.42408-.74341-.71496Z"/>
  <path class="cls-6" d="M27.88458,15.54352c-1.28632-1.28767-2.89279-2.20322-4.64764-2.64334-.43519-.10949-.86421.15251-.97164.5808-.10949.42901.15116.86421.58151.97164,1.4727.37149,2.8221,1.14009,3.90331,2.22338,3.11501,3.12418,3.27322,8.09976.47627,11.41198.17386.29088.42478.54078.74341.71496.18566.09975.37991.16734.57638.2044,3.22921-3.93903,3.01149-9.78104-.66162-13.46382Z"/>
  <path class="cls-8" d="M15.84316,30.14699c-.5052-.33204-.98414-.71999-1.42769-1.16431-1.78037-1.78579-2.68285-4.21236-2.61453-6.63584-.15251-.00127-.30725-.01974-.46181-.05794-.01234-.00311-.02434-.00688-.03656-.0102-.08654,2.57509.86673,5.1584,2.76014,7.05675.46932.4707.97628.88145,1.51112,1.2328.01615-.06327.03937-.12568.07207-.18563.05132-.09382.11908-.17248.19726-.23563Z"/>
  <path class="cls-12" d="M27.81806,28.70976c.01383.00926.02725.01892.04138.02788-.01412-.00896-.02756-.01861-.04138-.02788Z"/>
  <path class="cls-12" d="M27.61008,28.54934c.01557.01378.03111.02754.04719.04087-.01607-.01333-.03162-.0271-.04719-.04087Z"/>
  <path class="cls-12" d="M27.70749,28.62998c.01592.01235.03163.02487.048.03678-.01636-.01192-.03209-.02443-.048-.03678Z"/>
  <path class="cls-7" d="M29.81386,24.65582c-.14274-.04149-.26889.04722-.30348.17947-.34551,1.36455-1.00863,2.62706-1.92886,3.68812.00945.0087.01892.01739.02857.02592.01557.01377.03112.02754.04719.04087.01638.01359.03332.02666.05023.03977.01591.01235.03164.02486.048.03678.02037.01482.04148.02888.06256.043.01382.00927.02726.01891.04138.02788.03588.02274.07258.04463.11038.06529.00704.00378.01428.00674.02134.01043.95488-1.11215,1.6423-2.43091,2.00299-3.85325.0353-.1344-.04785-.27095-.18028-.30429Z"/>
  <path class="cls-11" d="M11.80093,22.34684c.03894-1.38119.39299-2.76138,1.0801-4.02137.06514-.12123.0215-.27239-.10116-.33959-.12132-.06658-.27579-.0215-.33887.10116-.71643,1.31379-1.09004,2.75143-1.13844,4.19165.01222.00333.02422.0071.03656.0102.15456.0382.3093.05667.46181.05794Z"/>
  <path class="cls-1" d="M27.49282,29.35202c-1.85045,1.84561-4.27758,2.76878-6.70668,2.76878-1.81825,0-3.63673-.51751-5.21232-1.55255-.08855.34699.06473.723.39303.90178,1.49482.81358,3.14018,1.21078,4.7772,1.21078,2.61215,0,5.20066-1.00703,7.1253-2.92683.2404-.23997.46588-.4893.67685-.74664-.18903-.03566-.3758-.10035-.55505-.19397-.00004.00005-.00008.00009-.00012.00014-.15901.18519-.32459.3653-.49821.53852Z"/>
  <path class="cls-1" d="M27.14015,28.99783c.15299-.15281.29969-.31107.44079-.47373.0002-.00023.00038-.00046.00058-.00068-.14028-.12921-.2597-.27582-.35511-.43545-.15455.18302-.31756.36126-.49016.53352-2.63088,2.62192-6.74691,3.21786-10.00294,1.44026-.28952-.15531-.64316-.11427-.89015.08523,3.48684,2.29167,8.22966,1.90917,11.297-1.14916Z"/>
  <path class="cls-10" d="M27.49282,29.35202c.17362-.17322.3392-.35333.49821-.53852-.00704-.00367-.01421-.00681-.02122-.01057-.03781-.02067-.07451-.04254-.11038-.06529-.01413-.00895-.02756-.01861-.04138-.02788-.02106-.01413-.0422-.02818-.06256-.043-.01638-.01191-.03209-.02443-.048-.03678-.0169-.01312-.03385-.02618-.05023-.03977-.01607-.01333-.03162-.0271-.04719-.04087-.00961-.0085-.01972-.01658-.02914-.02524-.1411.16266-.2878.32092-.44079.47373-3.06734,3.05834-7.81015,3.44084-11.297,1.14916-.07818.06315-.14594.14181-.19726.23563-.0327.05995-.05593.12236-.07207.18563,1.57559,1.03504,3.39407,1.55255,5.21232,1.55255,2.4291,0,4.85623-.92316,6.70668-2.76878Z"/>
  <path class="cls-12" d="M27.65727,28.59022c.01638.01359.03333.02665.05023.03977-.0169-.01311-.03385-.02618-.05023-.03977Z"/>
  <path class="cls-12" d="M27.85944,28.73764c.03586.02275.07257.04463.11038.06529-.0378-.02067-.0745-.04256-.11038-.06529Z"/>
  <path class="cls-12" d="M27.7555,28.66676c.02036.01482.0415.02887.06256.043-.02108-.01412-.04219-.02818-.06256-.043Z"/>
  <path class="cls-12" d="M27.99104,28.81351s.00008-.00009.00012-.00014c-.00706-.00369-.0143-.00665-.02134-.01043.00701.00377.01418.0069.02122.01057Z"/>
  <path class="cls-12" d="M27.61008,28.54934c-.00964-.00854-.01911-.01722-.02857-.02592-.0002.00023-.00038.00046-.00058.00068.00942.00866.01953.01674.02914.02524Z"/>
</svg>